<?xml version="1.0" encoding="UTF-8" standalone="no"?><svg xmlns="http://www.w3.org/2000/svg" xmlns:xlink="http://www.w3.org/1999/xlink" contentScriptType="application/ecmascript" contentStyleType="text/css" height="178px" preserveAspectRatio="none" style="width:239px;height:178px;" version="1.1" viewBox="0 0 239 178" width="239px" zoomAndPan="magnify"><defs><filter height="300%" id="f10lif25vtu2si" width="300%" x="-1" y="-1"><feGaussianBlur result="blurOut" stdDeviation="2.0"/><feColorMatrix in="blurOut" result="blurOut2" type="matrix" values="0 0 0 0 0 0 0 0 0 0 0 0 0 0 0 0 0 0 .4 0"/><feOffset dx="4.0" dy="4.0" in="blurOut2" result="blurOut3"/><feBlend in="SourceGraphic" in2="blurOut3" mode="normal"/></filter></defs><g><rect fill="#FEFECE" filter="url(#f10lif25vtu2si)" height="40" rx="12.5" ry="12.5" style="stroke:#A80036;stroke-width:1.5;" width="50" x="55.5563" y="7"/><text fill="#000000" font-family="sans-serif" font-size="14" lengthAdjust="spacing" textLength="27" x="67.0563" y="31.8467">s=0</text><rect fill="#FEFECE" filter="url(#f10lif25vtu2si)" height="40" rx="12.5" ry="12.5" style="stroke:#A80036;stroke-width:1.5;" width="50" x="55.5563" y="124"/><text fill="#000000" font-family="sans-serif" font-size="14" lengthAdjust="spacing" textLength="27" x="67.0563" y="148.8467">s=1</text><!--MD5=[cb49316b73040afd25b60db19396cae3]
link s0 to s0--><path d="M105.8341,17.187 C123.33,14.213 140.556,17.484 140.556,27 C140.556,35.549 126.651,39.058 111.1387,37.526 " fill="none" id="s0-to-s0" style="stroke:#A80036;stroke-width:1.0;"/><polygon fill="#A80036" points="105.8341,36.813,114.2209,41.9764,110.7895,37.4792,115.2868,34.0477,105.8341,36.813" style="stroke:#A80036;stroke-width:1.0;"/><text fill="#000000" font-family="sans-serif" font-size="13" lengthAdjust="spacing" textLength="80" x="146.556" y="31.5669">in=0 / out=0</text><!--MD5=[f6634d8150fdde17febcec4c775617e9]
link s0 to s1--><path d="M55.4867,39.882 C41.2417,48.117 24.6731,60.563 16.5563,77 C6,98.3772 29.5528,117.2783 51.0037,129.3145 " fill="none" id="s0-to-s1" style="stroke:#A80036;stroke-width:1.0;"/><polygon fill="#A80036" points="55.5361,131.7772,49.5378,123.9656,51.1427,129.39,45.7183,130.995,55.5361,131.7772" style="stroke:#A80036;stroke-width:1.0;"/><text fill="#000000" font-family="sans-serif" font-size="13" lengthAdjust="spacing" textLength="80" x="17.5563" y="90.0669">in=1 / out=1</text><!--MD5=[408517d86417f4bd52db5e8f5cfc08a2]
link s1 to s0--><path d="M91.5318,123.624 C95.8846,114.8679 100.3689,104.2124 102.5563,94 C105.6158,79.716 100.874,64.1974 95.0193,51.799 " fill="none" id="s1-to-s0" style="stroke:#A80036;stroke-width:1.0;"/><polygon fill="#A80036" points="92.6447,47.037,93.0816,56.8762,94.8761,51.5115,100.2407,53.306,92.6447,47.037" style="stroke:#A80036;stroke-width:1.0;"/><text fill="#000000" font-family="sans-serif" font-size="13" lengthAdjust="spacing" textLength="80" x="103.5563" y="90.0669">in=0 / out=1</text><!--MD5=[83e94b48916112c914fe5c3df0366f12]
link s1 to s1--><path d="M105.8341,134.187 C123.33,131.2134 140.556,134.4844 140.556,144 C140.556,152.5492 126.651,156.0578 111.1387,154.5258 " fill="none" id="s1-to-s1" style="stroke:#A80036;stroke-width:1.0;"/><polygon fill="#A80036" points="105.8341,153.813,114.2211,158.9761,110.7895,154.479,115.2867,151.0474,105.8341,153.813" style="stroke:#A80036;stroke-width:1.0;"/><text fill="#000000" font-family="sans-serif" font-size="13" lengthAdjust="spacing" textLength="80" x="146.556" y="148.5669">in=1 / out=0</text><!--MD5=[0d0913312084a85ba4a767da09ca5793]
@startuml
hide empty description

state "s=0" as s0
state "s=1" as s1

s0 - -> s0 : in=0 / out=0
s0 - -> s1 : in=1 / out=1
s1 - -> s1 : in=1 / out=0
s1 - -> s0 : in=0 / out=1
@enduml

PlantUML version 1.2021.6beta4(Unknown compile time)
(GPL source distribution)
Java Runtime: Java(TM) SE Runtime Environment
JVM: Java HotSpot(TM) 64-Bit Server VM
Default Encoding: UTF-8
Language: en
Country: US
--></g></svg>