<?xml version="1.0" encoding="UTF-8" standalone="no"?><svg xmlns="http://www.w3.org/2000/svg" xmlns:xlink="http://www.w3.org/1999/xlink" contentScriptType="application/ecmascript" contentStyleType="text/css" height="325px" preserveAspectRatio="none" style="width:283px;height:325px;background:#FFFFFF;" version="1.1" viewBox="0 0 283 325" width="283px" zoomAndPan="magnify"><defs><filter height="300%" id="f13ha3zkwqyt0w" width="300%" x="-1" y="-1"><feGaussianBlur result="blurOut" stdDeviation="2.0"/><feColorMatrix in="blurOut" result="blurOut2" type="matrix" values="0 0 0 0 0 0 0 0 0 0 0 0 0 0 0 0 0 0 .4 0"/><feOffset dx="4.0" dy="4.0" in="blurOut2" result="blurOut3"/><feBlend in="SourceGraphic" in2="blurOut3" mode="normal"/></filter></defs><g><g id="s0"><rect fill="#FEFECE" filter="url(#f13ha3zkwqyt0w)" height="50.2656" rx="12.5" ry="12.5" style="stroke:#A80036;stroke-width:1.5;" width="88" x="97" y="7"/><line style="stroke:#A80036;stroke-width:1.5;" x1="97" x2="185" y1="33.2969" y2="33.2969"/><text fill="#000000" font-family="sans-serif" font-size="14" lengthAdjust="spacing" textLength="68" x="107" y="24.9951">S0 (s=10)</text><text fill="#000000" font-family="sans-serif" font-size="12" lengthAdjust="spacing" textLength="37" x="102" y="49.4355">out=0</text></g><g id="s1"><rect fill="#FEFECE" filter="url(#f13ha3zkwqyt0w)" height="50.2656" rx="12.5" ry="12.5" style="stroke:#A80036;stroke-width:1.5;" width="88" x="112" y="261"/><line style="stroke:#A80036;stroke-width:1.5;" x1="112" x2="200" y1="287.2969" y2="287.2969"/><text fill="#000000" font-family="sans-serif" font-size="14" lengthAdjust="spacing" textLength="68" x="122" y="278.9951">S1 (s=01)</text><text fill="#000000" font-family="sans-serif" font-size="12" lengthAdjust="spacing" textLength="37" x="117" y="303.4355">out=0</text></g><g id="s_edge"><rect fill="#FEFECE" filter="url(#f13ha3zkwqyt0w)" height="50.2656" rx="12.5" ry="12.5" style="stroke:#A80036;stroke-width:1.5;" width="126" x="7" y="134"/><line style="stroke:#A80036;stroke-width:1.5;" x1="7" x2="133" y1="160.2969" y2="160.2969"/><text fill="#000000" font-family="sans-serif" font-size="14" lengthAdjust="spacing" textLength="106" x="17" y="151.9951">S_EDGE (s=00)</text><text fill="#000000" font-family="sans-serif" font-size="12" lengthAdjust="spacing" textLength="36" x="12" y="176.4355">out=1</text></g><!--MD5=[cb49316b73040afd25b60db19396cae3]
link s0 to s0--><path d="M185.269,20.495 C204.023,19.628 220,23.463 220,32 C220,39.737 206.878,43.612 190.459,43.625 " fill="none" id="s0-to-s0" style="stroke:#A80036;stroke-width:1.0;"/><polygon fill="#A80036" points="185.269,43.505,194.174,47.7122,190.2677,43.6207,194.3592,39.7144,185.269,43.505" style="stroke:#A80036;stroke-width:1.0;"/><text fill="#000000" font-family="sans-serif" font-size="13" lengthAdjust="spacing" textLength="29" x="226" y="36.5669">in=0</text><!--MD5=[0d174e5cf0570b2d9a8ec815a49ce8b8]
link s0 to s_edge--><path d="M96.964,55.031 C85.0507,63.313 73.6291,73.956 67,87 C60.5851,99.623 60.5247,115.197 62.4107,128.54 " fill="none" id="s0-to-s_edge" style="stroke:#A80036;stroke-width:1.0;"/><polygon fill="#A80036" points="63.2543,133.723,65.7573,124.1975,62.4514,128.7879,57.8611,125.4821,63.2543,133.723" style="stroke:#A80036;stroke-width:1.0;"/><text fill="#000000" font-family="sans-serif" font-size="13" lengthAdjust="spacing" textLength="29" x="68" y="100.0669">in=1</text><!--MD5=[b8c3169b2684cf852326fb2cee0f2359]
link s_edge to s0--><path d="M84.5057,133.905 C90.0476,124.601 96.3822,113.843 102,104 C109.885,90.185 118.416,74.717 125.482,61.754 " fill="none" id="s_edge-to-s0" style="stroke:#A80036;stroke-width:1.0;"/><polygon fill="#A80036" points="128.016,57.099,120.2012,63.093,125.6264,61.491,127.2284,66.9163,128.016,57.099" style="stroke:#A80036;stroke-width:1.0;"/><text fill="#000000" font-family="sans-serif" font-size="13" lengthAdjust="spacing" textLength="29" x="111" y="100.0669">in=0</text><!--MD5=[e190d1a574bc5c82e07f4a616bdcd1aa]
link s_edge to s1--><path d="M86.5817,184.101 C100.8585,204.853 121.479,234.8243 136.536,256.7088 " fill="none" id="s_edge-to-s1" style="stroke:#A80036;stroke-width:1.0;"/><polygon fill="#A80036" points="139.469,260.9727,137.6638,251.2907,136.6352,256.8533,131.0727,255.8247,139.469,260.9727" style="stroke:#A80036;stroke-width:1.0;"/><text fill="#000000" font-family="sans-serif" font-size="13" lengthAdjust="spacing" textLength="29" x="119" y="227.0669">in=1</text><!--MD5=[83e94b48916112c914fe5c3df0366f12]
link s1 to s1--><path d="M200.269,274.4949 C219.023,273.6279 235,277.4629 235,286 C235,293.7368 221.878,297.6117 205.459,297.625 " fill="none" id="s1-to-s1" style="stroke:#A80036;stroke-width:1.0;"/><polygon fill="#A80036" points="200.269,297.5051,209.174,301.7123,205.2677,297.6208,209.3592,293.7145,200.269,297.5051" style="stroke:#A80036;stroke-width:1.0;"/><text fill="#000000" font-family="sans-serif" font-size="13" lengthAdjust="spacing" textLength="29" x="241" y="290.5669">in=1</text><!--MD5=[408517d86417f4bd52db5e8f5cfc08a2]
link s1 to s0--><path d="M156.543,260.8083 C156.728,251.4917 156.91,240.7513 157,231 C157.593,166.904 155.718,150.746 149,87 C148.161,79.036 147.004,70.446 145.831,62.511 " fill="none" id="s1-to-s0" style="stroke:#A80036;stroke-width:1.0;"/><polygon fill="#A80036" points="145.019,57.138,142.406,66.6339,145.7647,62.0821,150.3165,65.4408,145.019,57.138" style="stroke:#A80036;stroke-width:1.0;"/><text fill="#000000" font-family="sans-serif" font-size="13" lengthAdjust="spacing" textLength="29" x="157" y="163.5669">in=0</text><!--MD5=[7176f89f58022ac94975b1ed4afb7efc]
@startuml
hide empty description

state "S0 (s=10)" as s0 : out=0
state "S1 (s=01)" as s1 : out=0
state "S_EDGE (s=00)" as s_edge : out=1

s0 - -> s0 : in=0
s0 - -> s_edge : in=1
s_edge - -> s0 : in=0
s_edge - -> s1 : in=1
s1 - -> s1 : in=1
s1 - -> s0 : in=0
@enduml

PlantUML version 1.2021.6beta6(Unknown compile time)
(GPL source distribution)
Java Runtime: Java(TM) SE Runtime Environment
JVM: Java HotSpot(TM) 64-Bit Server VM
Default Encoding: UTF-8
Language: en
Country: US
--></g></svg>