<?xml version="1.0" encoding="UTF-8" standalone="no"?><svg xmlns="http://www.w3.org/2000/svg" xmlns:xlink="http://www.w3.org/1999/xlink" contentScriptType="application/ecmascript" contentStyleType="text/css" height="325px" preserveAspectRatio="none" style="width:250px;height:325px;background:#FFFFFF;" version="1.1" viewBox="0 0 250 325" width="250px" zoomAndPan="magnify"><defs><filter height="300%" id="f11zqszqb486ss" width="300%" x="-1" y="-1"><feGaussianBlur result="blurOut" stdDeviation="2.0"/><feColorMatrix in="blurOut" result="blurOut2" type="matrix" values="0 0 0 0 0 0 0 0 0 0 0 0 0 0 0 0 0 0 .4 0"/><feOffset dx="4.0" dy="4.0" in="blurOut2" result="blurOut3"/><feBlend in="SourceGraphic" in2="blurOut3" mode="normal"/></filter></defs><g><g id="s0"><rect fill="#FEFECE" filter="url(#f11zqszqb486ss)" height="50.2656" rx="12.5" ry="12.5" style="stroke:#A80036;stroke-width:1.5;" width="88" x="67" y="7"/><line style="stroke:#A80036;stroke-width:1.5;" x1="67" x2="155" y1="33.2969" y2="33.2969"/><text fill="#000000" font-family="sans-serif" font-size="14" lengthAdjust="spacing" textLength="68" x="77" y="24.9951">S0 (s=10)</text><text fill="#000000" font-family="sans-serif" font-size="12" lengthAdjust="spacing" textLength="37" x="72" y="49.4355">out=0</text></g><g id="s1"><rect fill="#FEFECE" filter="url(#f11zqszqb486ss)" height="50.2656" rx="12.5" ry="12.5" style="stroke:#A80036;stroke-width:1.5;" width="88" x="79" y="261"/><line style="stroke:#A80036;stroke-width:1.5;" x1="79" x2="167" y1="287.2969" y2="287.2969"/><text fill="#000000" font-family="sans-serif" font-size="14" lengthAdjust="spacing" textLength="68" x="89" y="278.9951">S1 (s=01)</text><text fill="#000000" font-family="sans-serif" font-size="12" lengthAdjust="spacing" textLength="37" x="84" y="303.4355">out=0</text></g><g id="SP"><rect fill="#FEFECE" filter="url(#f11zqszqb486ss)" height="50.2656" rx="12.5" ry="12.5" style="stroke:#A80036;stroke-width:1.5;" width="88" x="7" y="134"/><line style="stroke:#A80036;stroke-width:1.5;" x1="7" x2="95" y1="160.2969" y2="160.2969"/><text fill="#000000" font-family="sans-serif" font-size="14" lengthAdjust="spacing" textLength="68" x="17" y="151.9951">SP (s=00)</text><text fill="#000000" font-family="sans-serif" font-size="12" lengthAdjust="spacing" textLength="36" x="12" y="176.4355">out=1</text></g><!--MD5=[cb49316b73040afd25b60db19396cae3]
link s0 to s0--><path d="M155.269,20.495 C174.023,19.628 190,23.463 190,32 C190,39.737 176.878,43.612 160.459,43.625 " fill="none" id="s0-to-s0" style="stroke:#A80036;stroke-width:1.0;"/><polygon fill="#A80036" points="155.269,43.505,164.174,47.7122,160.2677,43.6207,164.3592,39.7144,155.269,43.505" style="stroke:#A80036;stroke-width:1.0;"/><text fill="#000000" font-family="sans-serif" font-size="13" lengthAdjust="spacing" textLength="29" x="196" y="36.5669">in=0</text><!--MD5=[a9b43f161d1394ac2cc048a37e95f365]
link s0 to SP--><path d="M66.964,55.031 C55.0507,63.313 43.6291,73.956 37,87 C30.4096,99.968 32.6441,115.729 37.0692,129.104 " fill="none" id="s0-to-SP" style="stroke:#A80036;stroke-width:1.0;"/><polygon fill="#A80036" points="38.7863,133.914,39.5268,124.093,37.1049,129.2052,31.9927,126.7833,38.7863,133.914" style="stroke:#A80036;stroke-width:1.0;"/><text fill="#000000" font-family="sans-serif" font-size="13" lengthAdjust="spacing" textLength="29" x="38" y="100.0669">in=1</text><!--MD5=[9e2691b1b1122ebdd9f129425456d667]
link SP to s0--><path d="M62.5331,133.973 C72.4417,113.33 86.7491,83.523 97.2511,61.644 " fill="none" id="SP-to-s0" style="stroke:#A80036;stroke-width:1.0;"/><polygon fill="#A80036" points="99.4314,57.101,91.9317,63.4849,97.2684,61.6089,99.1444,66.9457,99.4314,57.101" style="stroke:#A80036;stroke-width:1.0;"/><text fill="#000000" font-family="sans-serif" font-size="13" lengthAdjust="spacing" textLength="29" x="85" y="100.0669">in=0</text><!--MD5=[b92c2b04426b131553494c6d56294368]
link SP to s1--><path d="M64.8823,184.101 C76.7852,204.766 93.955,234.5747 106.5465,256.4348 " fill="none" id="SP-to-s1" style="stroke:#A80036;stroke-width:1.0;"/><polygon fill="#A80036" points="109.16,260.9727,108.134,251.1774,106.6644,256.64,101.2018,255.1704,109.16,260.9727" style="stroke:#A80036;stroke-width:1.0;"/><text fill="#000000" font-family="sans-serif" font-size="13" lengthAdjust="spacing" textLength="29" x="92" y="227.0669">in=1</text><!--MD5=[83e94b48916112c914fe5c3df0366f12]
link s1 to s1--><path d="M167.269,274.4949 C186.023,273.6279 202,277.4629 202,286 C202,293.7368 188.878,297.6117 172.459,297.625 " fill="none" id="s1-to-s1" style="stroke:#A80036;stroke-width:1.0;"/><polygon fill="#A80036" points="167.269,297.5051,176.174,301.7123,172.2677,297.6208,176.3592,293.7145,167.269,297.5051" style="stroke:#A80036;stroke-width:1.0;"/><text fill="#000000" font-family="sans-serif" font-size="13" lengthAdjust="spacing" textLength="29" x="208" y="290.5669">in=1</text><!--MD5=[408517d86417f4bd52db5e8f5cfc08a2]
link s1 to s0--><path d="M126.803,260.8717 C128.093,251.5629 129.367,240.8112 130,231 C134.127,167.057 131.742,150.476 123,87 C121.871,78.806 120.144,70.014 118.349,61.953 " fill="none" id="s1-to-s0" style="stroke:#A80036;stroke-width:1.0;"/><polygon fill="#A80036" points="117.226,57.04,115.3296,66.7046,118.3389,61.9146,123.1289,64.9239,117.226,57.04" style="stroke:#A80036;stroke-width:1.0;"/><text fill="#000000" font-family="sans-serif" font-size="13" lengthAdjust="spacing" textLength="29" x="132" y="163.5669">in=0</text><!--MD5=[f5ea3756742d95d9a8e4a75140fbb530]
@startuml
hide empty description

state "S0 (s=10)" as s0 : out=0
state "S1 (s=01)" as s1 : out=0
state "SP (s=00)" as SP : out=1

s0 - -> s0 : in=0
s0 - -> SP : in=1
SP - -> s0 : in=0
SP - -> s1 : in=1
s1 - -> s1 : in=1
s1 - -> s0 : in=0
@enduml

PlantUML version 1.2021.6beta6(Unknown compile time)
(GPL source distribution)
Java Runtime: Java(TM) SE Runtime Environment
JVM: Java HotSpot(TM) 64-Bit Server VM
Default Encoding: UTF-8
Language: en
Country: US
--></g></svg>